<?xml version="1.0" encoding="UTF-8"?>
<svg xmlns:xhtml="http://www.w3.org/1999/xhtml" xmlns:xlink="http://www.w3.org/1999/xlink" xmlns="http://www.w3.org/2000/svg" id="mermaid-svg-256" width="100%" class="flowchart" style="max-width: 100%;" viewBox="-72.53536376953126 -72.53536376953126 3543.2269775390623 1595.7780029296873" height="100%"><style>#mermaid-svg-256{font-family:"trebuchet ms",verdana,arial,sans-serif;font-size:16px;fill:#333;}@keyframes edge-animation-frame{from{stroke-dashoffset:0;}}@keyframes dash{to{stroke-dashoffset:0;}}#mermaid-svg-256 .edge-animation-slow{stroke-dasharray:9,5!important;stroke-dashoffset:900;animation:dash 50s linear infinite;stroke-linecap:round;}#mermaid-svg-256 .edge-animation-fast{stroke-dasharray:9,5!important;stroke-dashoffset:900;animation:dash 20s linear infinite;stroke-linecap:round;}#mermaid-svg-256 .error-icon{fill:#552222;}#mermaid-svg-256 .error-text{fill:#552222;stroke:#552222;}#mermaid-svg-256 .edge-thickness-normal{stroke-width:1px;}#mermaid-svg-256 .edge-thickness-thick{stroke-width:3.5px;}#mermaid-svg-256 .edge-pattern-solid{stroke-dasharray:0;}#mermaid-svg-256 .edge-thickness-invisible{stroke-width:0;fill:none;}#mermaid-svg-256 .edge-pattern-dashed{stroke-dasharray:3;}#mermaid-svg-256 .edge-pattern-dotted{stroke-dasharray:2;}#mermaid-svg-256 .marker{fill:#333333;stroke:#333333;}#mermaid-svg-256 .marker.cross{stroke:#333333;}#mermaid-svg-256 svg{font-family:"trebuchet ms",verdana,arial,sans-serif;font-size:16px;}#mermaid-svg-256 p{margin:0;}#mermaid-svg-256 .label{font-family:"trebuchet ms",verdana,arial,sans-serif;color:#333;}#mermaid-svg-256 .cluster-label text{fill:#333;}#mermaid-svg-256 .cluster-label span{color:#333;}#mermaid-svg-256 .cluster-label span p{background-color:transparent;}#mermaid-svg-256 .label text,#mermaid-svg-256 span{fill:#333;color:#333;}#mermaid-svg-256 .node rect,#mermaid-svg-256 .node circle,#mermaid-svg-256 .node ellipse,#mermaid-svg-256 .node polygon,#mermaid-svg-256 .node path{fill:#ECECFF;stroke:#9370DB;stroke-width:1px;}#mermaid-svg-256 .rough-node .label text,#mermaid-svg-256 .node .label text,#mermaid-svg-256 .image-shape .label,#mermaid-svg-256 .icon-shape .label{text-anchor:middle;}#mermaid-svg-256 .node .katex path{fill:#000;stroke:#000;stroke-width:1px;}#mermaid-svg-256 .rough-node .label,#mermaid-svg-256 .node .label,#mermaid-svg-256 .image-shape .label,#mermaid-svg-256 .icon-shape .label{text-align:center;}#mermaid-svg-256 .node.clickable{cursor:pointer;}#mermaid-svg-256 .root .anchor path{fill:#333333!important;stroke-width:0;stroke:#333333;}#mermaid-svg-256 .arrowheadPath{fill:#333333;}#mermaid-svg-256 .edgePath .path{stroke:#333333;stroke-width:2.0px;}#mermaid-svg-256 .flowchart-link{stroke:#333333;fill:none;}#mermaid-svg-256 .edgeLabel{background-color:rgba(232,232,232, 0.8);text-align:center;}#mermaid-svg-256 .edgeLabel p{background-color:rgba(232,232,232, 0.8);}#mermaid-svg-256 .edgeLabel rect{opacity:0.5;background-color:rgba(232,232,232, 0.8);fill:rgba(232,232,232, 0.8);}#mermaid-svg-256 .labelBkg{background-color:rgba(232, 232, 232, 0.5);}#mermaid-svg-256 .cluster rect{fill:#ffffde;stroke:#aaaa33;stroke-width:1px;}#mermaid-svg-256 .cluster text{fill:#333;}#mermaid-svg-256 .cluster span{color:#333;}#mermaid-svg-256 div.mermaidTooltip{position:absolute;text-align:center;max-width:200px;padding:2px;font-family:"trebuchet ms",verdana,arial,sans-serif;font-size:12px;background:hsl(80, 100%, 96.2745098039%);border:1px solid #aaaa33;border-radius:2px;pointer-events:none;z-index:100;}#mermaid-svg-256 .flowchartTitleText{text-anchor:middle;font-size:18px;fill:#333;}#mermaid-svg-256 rect.text{fill:none;stroke-width:0;}#mermaid-svg-256 .icon-shape,#mermaid-svg-256 .image-shape{background-color:rgba(232,232,232, 0.8);text-align:center;}#mermaid-svg-256 .icon-shape p,#mermaid-svg-256 .image-shape p{background-color:rgba(232,232,232, 0.8);padding:2px;}#mermaid-svg-256 .icon-shape rect,#mermaid-svg-256 .image-shape rect{opacity:0.5;background-color:rgba(232,232,232, 0.8);fill:rgba(232,232,232, 0.8);}#mermaid-svg-256 .label-icon{display:inline-block;height:1em;overflow:visible;vertical-align:-0.125em;}#mermaid-svg-256 .node .label-icon path{fill:currentColor;stroke:revert;stroke-width:revert;}#mermaid-svg-256 :root{--mermaid-font-family:"trebuchet ms",verdana,arial,sans-serif;}#mermaid-svg-256 .highlight&gt;*{fill:#fff4e6!important;stroke:#d9480f!important;stroke-width:3px!important;color:#000!important;}#mermaid-svg-256 .highlight span{fill:#fff4e6!important;stroke:#d9480f!important;stroke-width:3px!important;color:#000!important;}#mermaid-svg-256 .highlight tspan{fill:#000!important;}#mermaid-svg-256 .warn&gt;*{fill:#fff0f0!important;stroke:#c92a2a!important;stroke-width:2px!important;stroke-dasharray:5 5!important;}#mermaid-svg-256 .warn span{fill:#fff0f0!important;stroke:#c92a2a!important;stroke-width:2px!important;stroke-dasharray:5 5!important;}#mermaid-svg-256 .storage&gt;*{fill:#e7f5ff!important;stroke:#1971c2!important;stroke-width:2px!important;}#mermaid-svg-256 .storage span{fill:#e7f5ff!important;stroke:#1971c2!important;stroke-width:2px!important;}#mermaid-svg-256 .core&gt;*{fill:#f8f9fa!important;stroke:#495057!important;stroke-width:2px!important;}#mermaid-svg-256 .core span{fill:#f8f9fa!important;stroke:#495057!important;stroke-width:2px!important;}#mermaid-svg-256 .event&gt;*{fill:#f3f0ff!important;stroke:#7950f2!important;stroke-width:2px!important;}#mermaid-svg-256 .event span{fill:#f3f0ff!important;stroke:#7950f2!important;stroke-width:2px!important;}</style><g><marker id="mermaid-svg-256_flowchart-v2-pointEnd" class="marker flowchart-v2" viewBox="0 0 10 10" refX="5" refY="5" markerUnits="userSpaceOnUse" markerWidth="8" markerHeight="8" orient="auto"><path d="M 0 0 L 10 5 L 0 10 z" class="arrowMarkerPath" style="stroke-width: 1; stroke-dasharray: 1, 0;"/></marker><marker id="mermaid-svg-256_flowchart-v2-pointStart" class="marker flowchart-v2" viewBox="0 0 10 10" refX="4.5" refY="5" markerUnits="userSpaceOnUse" markerWidth="8" markerHeight="8" orient="auto"><path d="M 0 5 L 10 10 L 10 0 z" class="arrowMarkerPath" style="stroke-width: 1; stroke-dasharray: 1, 0;"/></marker><marker id="mermaid-svg-256_flowchart-v2-circleEnd" class="marker flowchart-v2" viewBox="0 0 10 10" refX="11" refY="5" markerUnits="userSpaceOnUse" markerWidth="11" markerHeight="11" orient="auto"><circle cx="5" cy="5" r="5" class="arrowMarkerPath" style="stroke-width: 1; stroke-dasharray: 1, 0;"/></marker><marker id="mermaid-svg-256_flowchart-v2-circleStart" class="marker flowchart-v2" viewBox="0 0 10 10" refX="-1" refY="5" markerUnits="userSpaceOnUse" markerWidth="11" markerHeight="11" orient="auto"><circle cx="5" cy="5" r="5" class="arrowMarkerPath" style="stroke-width: 1; stroke-dasharray: 1, 0;"/></marker><marker id="mermaid-svg-256_flowchart-v2-crossEnd" class="marker cross flowchart-v2" viewBox="0 0 11 11" refX="12" refY="5.2" markerUnits="userSpaceOnUse" markerWidth="11" markerHeight="11" orient="auto"><path d="M 1,1 l 9,9 M 10,1 l -9,9" class="arrowMarkerPath" style="stroke-width: 2; stroke-dasharray: 1, 0;"/></marker><marker id="mermaid-svg-256_flowchart-v2-crossStart" class="marker cross flowchart-v2" viewBox="0 0 11 11" refX="-1" refY="5.2" markerUnits="userSpaceOnUse" markerWidth="11" markerHeight="11" orient="auto"><path d="M 1,1 l 9,9 M 10,1 l -9,9" class="arrowMarkerPath" style="stroke-width: 2; stroke-dasharray: 1, 0;"/></marker><g class="root"><g class="clusters"><g class="cluster" id="L6" data-look="classic"><rect style="" x="2304.1640625" y="738" width="272.3359375" height="632.6477928161621"/><g class="cluster-label" transform="translate(2376.33203125, 738)"><foreignObject width="128" height="24"><div xmlns="http://www.w3.org/1999/xhtml" style="display: table-cell; white-space: nowrap; line-height: 1.5; max-width: 200px; text-align: center;"><span class="nodeLabel"><p>记忆与文件存储层</p></span></div></foreignObject></g></g><g class="cluster" id="L5" data-look="classic"><rect style="" x="1807.3828125" y="408" width="769.1171875" height="310"/><g class="cluster-label" transform="translate(2143.94140625, 408)"><foreignObject width="96" height="24"><div xmlns="http://www.w3.org/1999/xhtml" style="display: table-cell; white-space: nowrap; line-height: 1.5; max-width: 200px; text-align: center;"><span class="nodeLabel"><p>大模型智能层</p></span></div></foreignObject></g></g><g class="cluster" id="L4" data-look="classic"><rect style="" x="1807.3828125" y="8" width="1582.7734375" height="380"/><g class="cluster-label" transform="translate(2534.76953125, 8)"><foreignObject width="128" height="24"><div xmlns="http://www.w3.org/1999/xhtml" style="display: table-cell; white-space: nowrap; line-height: 1.5; max-width: 200px; text-align: center;"><span class="nodeLabel"><p>业务微服务核验层</p></span></div></foreignObject></g></g><g class="cluster" id="L3" data-look="classic"><rect style="" x="1335.3828125" y="115" width="222" height="520"/><g class="cluster-label" transform="translate(1406.3828125, 115)"><foreignObject width="80" height="24"><div xmlns="http://www.w3.org/1999/xhtml" style="display: table-cell; white-space: nowrap; line-height: 1.5; max-width: 200px; text-align: center;"><span class="nodeLabel"><p>编排接入层</p></span></div></foreignObject></g></g><g class="cluster" id="L2" data-look="classic"><rect style="" x="904.3828125" y="1143.7072830200195" width="1157" height="299"/><g class="cluster-label" transform="translate(1418.8828125, 1143.7072830200195)"><foreignObject width="128" height="24"><div xmlns="http://www.w3.org/1999/xhtml" style="display: table-cell; white-space: nowrap; line-height: 1.5; max-width: 200px; text-align: center;"><span class="nodeLabel"><p>语音识别与合成层</p></span></div></foreignObject></g></g><g class="cluster" id="L1" data-look="classic"><rect style="" x="8" y="1224.7072830200195" width="646.3828125" height="215"/><g class="cluster-label" transform="translate(259.19140625, 1224.7072830200195)"><foreignObject width="144" height="24"><div xmlns="http://www.w3.org/1999/xhtml" style="display: table-cell; white-space: nowrap; line-height: 1.5; max-width: 200px; text-align: center;"><span class="nodeLabel"><p>接入层与语音交换层</p></span></div></foreignObject></g></g><g class="cluster" id="L4_2" data-look="classic"><rect style="" x="2738.5" y="220" width="626.65625" height="148"/><g class="cluster-label" transform="translate(2967.6328125, 220)"><foreignObject width="168.390625" height="24"><div xmlns="http://www.w3.org/1999/xhtml" style="display: table-cell; white-space: nowrap; line-height: 1.5; max-width: 200px; text-align: center;"><span class="nodeLabel"><p>节点2：贷款与征信核验</p></span></div></foreignObject></g></g><g class="cluster" id="L4_1" data-look="classic"><rect style="" x="2738.5" y="28" width="626.65625" height="172"/><g class="cluster-label" transform="translate(2967.6328125, 28)"><foreignObject width="168.390625" height="24"><div xmlns="http://www.w3.org/1999/xhtml" style="display: table-cell; white-space: nowrap; line-height: 1.5; max-width: 200px; text-align: center;"><span class="nodeLabel"><p>节点1：身份与声纹核验</p></span></div></foreignObject></g></g></g><g class="edgePaths"><path d="M197.391,1313.155L215.691,1309.247C233.991,1305.339,270.591,1297.523,306.536,1296.965C342.482,1296.406,377.772,1303.105,395.417,1306.454L413.062,1309.804" id="L_A1_A2_0" class="edge-thickness-normal edge-pattern-solid edge-thickness-normal edge-pattern-solid flowchart-link" style="" marker-end="url(#mermaid-svg-256_flowchart-v2-pointEnd)"/><path d="M629.383,1295.901L633.549,1294.536C637.716,1293.17,646.049,1290.439,671.049,1289.073C696.049,1287.707,737.716,1287.707,779.383,1287.707C821.049,1287.707,862.716,1287.707,887.049,1287.707C911.383,1287.707,918.383,1287.707,921.883,1287.707L925.383,1287.707" id="L_A2_B1_0" class="edge-thickness-normal edge-pattern-solid edge-thickness-normal edge-pattern-solid flowchart-link" style="" marker-end="url(#mermaid-svg-256_flowchart-v2-pointEnd)"/><path d="M1085.383,1265.422L1106.216,1259.469C1127.049,1253.517,1168.716,1241.612,1210.383,1235.66C1252.049,1229.707,1293.716,1229.707,1331.681,1115.082C1369.645,1000.457,1403.907,771.206,1421.038,656.581L1438.169,541.956" id="L_B1_C1_0" class="edge-thickness-normal edge-pattern-solid edge-thickness-normal edge-pattern-solid flowchart-link" style="stroke:#d9480f;stroke-width:4px;fill:none;" marker-end="url(#mermaid-svg-256_flowchart-v2-pointEnd__d9480f)"/><path d="M1463.434,436L1479.092,389.167C1494.75,342.333,1526.067,248.667,1562.558,201.833C1599.049,155,1640.716,155,1682.383,155C1724.049,155,1765.716,155,1794.072,157.014C1822.428,159.028,1837.474,163.056,1844.996,165.07L1852.519,167.084" id="L_C1_D1_0" class="edge-thickness-normal edge-pattern-solid edge-thickness-normal edge-pattern-solid flowchart-link" style="" marker-end="url(#mermaid-svg-256_flowchart-v2-pointEnd)"/><path d="M2012.383,189L2020.549,189C2028.716,189,2045.049,189,2073.448,189C2101.846,189,2142.31,189,2182.773,189C2223.237,189,2263.701,189,2287.432,189C2311.164,189,2318.164,189,2321.664,189L2325.164,189" id="L_D1_D2_0" class="edge-thickness-normal edge-pattern-solid edge-thickness-normal edge-pattern-solid flowchart-link" style="" marker-end="url(#mermaid-svg-256_flowchart-v2-pointEnd)"/><path d="M2489.353,162L2503.877,154C2518.402,146,2547.451,130,2575.475,122C2603.5,114,2630.5,114,2657.5,114C2684.5,114,2711.5,114,2728.5,114C2745.5,114,2752.5,114,2756,114L2759.5,114" id="L_D2_D3_0" class="edge-thickness-normal edge-pattern-solid edge-thickness-normal edge-pattern-solid flowchart-link" style="stroke:#d9480f;stroke-width:4px;fill:none;" marker-end="url(#mermaid-svg-256_flowchart-v2-pointEnd__d9480f)"/><path d="M2949.766,114L2963.266,114C2976.766,114,3003.766,114,3031.432,114C3059.099,114,3087.432,114,3101.599,114L3115.766,114" id="L_D3_D5_0" class="edge-thickness-normal edge-pattern-dotted edge-thickness-normal edge-pattern-solid flowchart-link" style="stroke:#d9480f;stroke-width:4px;fill:none;" marker-end="url(#mermaid-svg-256_flowchart-v2-pointEnd__d9480f)"/><path d="M1482.671,436L1495.123,418.5C1507.575,401,1532.479,366,1565.764,348.5C1599.049,331,1640.716,331,1682.383,331C1724.049,331,1765.716,331,1801.458,314.33C1837.201,297.661,1867.018,264.321,1881.927,247.651L1896.836,230.982" id="L_C1_D1_2" class="edge-thickness-normal edge-pattern-solid edge-thickness-normal edge-pattern-solid flowchart-link" style="" marker-end="url(#mermaid-svg-256_flowchart-v2-pointEnd)"/><path d="M2475.347,216L2492.206,229C2509.064,242,2542.782,268,2573.141,281C2603.5,294,2630.5,294,2657.5,294C2684.5,294,2711.5,294,2731.022,294C2750.544,294,2762.589,294,2768.611,294L2774.633,294" id="L_D2_D4_0" class="edge-thickness-normal edge-pattern-solid edge-thickness-normal edge-pattern-solid flowchart-link" style="" marker-end="url(#mermaid-svg-256_flowchart-v2-pointEnd)"/><path d="M2934.633,294L2950.655,294C2966.677,294,2998.721,294,3027.577,294C3056.432,294,3082.099,294,3094.932,294L3107.766,294" id="L_D4_D6_0" class="edge-thickness-normal edge-pattern-dotted edge-thickness-normal edge-pattern-solid flowchart-link" style="" marker-end="url(#mermaid-svg-256_flowchart-v2-pointEnd)"/><path d="M1512.983,538L1520.383,543.667C1527.783,549.333,1542.583,560.667,1570.816,566.333C1599.049,572,1640.716,572,1682.383,572C1724.049,572,1765.716,572,1790.049,572C1814.383,572,1821.383,572,1824.883,572L1828.383,572" id="L_C1_E1_0" class="edge-thickness-normal edge-pattern-solid edge-thickness-normal edge-pattern-solid flowchart-link" style="" marker-end="url(#mermaid-svg-256_flowchart-v2-pointEnd)"/><path d="M1989.416,533L2001.411,524.5C2013.405,516,2037.394,499,2069.62,490.5C2101.846,482,2142.31,482,2182.773,482C2223.237,482,2263.701,482,2290.294,482C2316.887,482,2329.609,482,2335.971,482L2342.332,482" id="L_E1_E2_0" class="edge-thickness-normal edge-pattern-solid edge-thickness-normal edge-pattern-solid flowchart-link" style="" marker-end="url(#mermaid-svg-256_flowchart-v2-pointEnd)"/><path d="M2036.383,544.693L2040.549,543.577C2044.716,542.462,2053.049,540.231,2077.448,539.115C2101.846,538,2142.31,538,2182.773,538C2223.237,538,2263.701,538,2302.415,576.75C2341.13,615.5,2378.096,693,2396.579,731.75L2415.062,770.501" id="L_E1_F1_0" class="edge-thickness-normal edge-pattern-solid edge-thickness-normal edge-pattern-solid flowchart-link" style="" marker-end="url(#mermaid-svg-256_flowchart-v2-pointEnd)"/><path d="M2036.383,599.307L2040.549,600.423C2044.716,601.538,2053.049,603.769,2077.448,604.885C2101.846,606,2142.31,606,2182.773,606C2223.237,606,2263.701,606,2303.334,658.032C2342.967,710.063,2381.77,814.126,2401.172,866.158L2420.574,918.19" id="L_E1_F2_0" class="edge-thickness-normal edge-pattern-solid edge-thickness-normal edge-pattern-solid flowchart-link" style="" marker-end="url(#mermaid-svg-256_flowchart-v2-pointEnd)"/><path d="M1982.942,611L1996.015,621.5C2009.089,632,2035.236,653,2068.541,663.5C2101.846,674,2142.31,674,2182.773,674C2223.237,674,2263.701,674,2303.924,739.361C2344.148,804.722,2384.132,935.444,2404.124,1000.805L2424.116,1066.166" id="L_E1_F3_0" class="edge-thickness-normal edge-pattern-solid edge-thickness-normal edge-pattern-solid flowchart-link" style="" marker-end="url(#mermaid-svg-256_flowchart-v2-pointEnd)"/><path d="M1085.383,1298.466L1106.216,1301.339C1127.049,1304.213,1168.716,1309.96,1210.383,1312.834C1252.049,1315.707,1293.716,1315.707,1333.049,1315.707C1372.383,1315.707,1409.383,1315.707,1446.383,1315.707C1483.383,1315.707,1520.383,1315.707,1559.716,1315.707C1599.049,1315.707,1640.716,1315.707,1682.383,1315.707C1724.049,1315.707,1765.716,1315.707,1807.716,1315.707C1849.716,1315.707,1892.049,1315.707,1934.383,1315.707C1976.716,1315.707,2019.049,1315.707,2060.448,1315.707C2101.846,1315.707,2142.31,1315.707,2182.773,1315.707C2223.237,1315.707,2263.701,1315.707,2288.741,1314.189C2313.782,1312.67,2323.4,1309.633,2328.209,1308.114L2333.018,1306.596" id="L_B1_F4_0" class="edge-thickness-normal edge-pattern-dotted edge-thickness-normal edge-pattern-solid flowchart-link" style="" marker-end="url(#mermaid-svg-256_flowchart-v2-pointEnd)"/><path d="M2012.383,1229.707L2020.549,1229.707C2028.716,1229.707,2045.049,1229.707,2073.448,1229.707C2101.846,1229.707,2142.31,1229.707,2182.773,1229.707C2223.237,1229.707,2263.701,1229.707,2288.741,1231.226C2313.782,1232.744,2323.4,1235.782,2328.209,1237.3L2333.018,1238.819" id="L_B2_F4_0" class="edge-thickness-normal edge-pattern-dotted edge-thickness-normal edge-pattern-solid flowchart-link" style="" marker-end="url(#mermaid-svg-256_flowchart-v2-pointEnd)"/><path d="M1500.297,538L1509.811,547C1519.326,556,1538.354,574,1568.702,689.285C1599.049,804.569,1640.716,1017.138,1682.383,1123.423C1724.049,1229.707,1765.716,1229.707,1794.049,1229.707C1822.383,1229.707,1837.383,1229.707,1844.883,1229.707L1852.383,1229.707" id="L_C1_B2_0" class="edge-thickness-normal edge-pattern-solid edge-thickness-normal edge-pattern-solid flowchart-link" style="" marker-end="url(#mermaid-svg-256_flowchart-v2-pointEnd)"/><path d="M1893.128,1280.707L1878.837,1298.374C1864.546,1316.041,1835.965,1351.374,1800.84,1369.041C1765.716,1386.707,1724.049,1386.707,1682.383,1386.707C1640.716,1386.707,1599.049,1386.707,1559.716,1386.707C1520.383,1386.707,1483.383,1386.707,1446.383,1386.707C1409.383,1386.707,1372.383,1386.707,1333.049,1386.707C1293.716,1386.707,1252.049,1386.707,1197.383,1386.707C1142.716,1386.707,1075.049,1386.707,1024.049,1386.707C973.049,1386.707,938.716,1386.707,900.716,1386.707C862.716,1386.707,821.049,1386.707,779.383,1386.707C737.716,1386.707,696.049,1386.707,671.663,1385.19C647.276,1383.674,640.169,1380.64,636.615,1379.123L633.062,1377.606" id="L_B2_A2_0" class="edge-thickness-normal edge-pattern-solid edge-thickness-normal edge-pattern-solid flowchart-link" style="" marker-end="url(#mermaid-svg-256_flowchart-v2-pointEnd)"/><path d="M416.992,1352.34L398.692,1356.068C380.392,1359.796,343.792,1367.252,307.841,1366.934C271.891,1366.617,236.59,1358.528,218.94,1354.483L201.29,1350.438" id="L_A2_A1_0" class="edge-thickness-normal edge-pattern-solid edge-thickness-normal edge-pattern-solid flowchart-link" style="" marker-end="url(#mermaid-svg-256_flowchart-v2-pointEnd)"/></g><g class="edgeLabels"><g class="edgeLabel" transform="translate(307.19140625, 1289.7072830200195)"><g class="label" transform="translate(-74.58984375, -24)"><foreignObject width="149.1796875" height="48"><div xmlns="http://www.w3.org/1999/xhtml" class="labelBkg" style="display: table-cell; white-space: nowrap; line-height: 1.5; max-width: 200px; text-align: center;"><span class="edgeLabel"><p>SIP 上行<br /><b>携带：CallID, 手机号</b></p></span></div></foreignObject></g></g><g class="edgeLabel" transform="translate(779.3828125, 1287.7072830200195)"><g class="label" transform="translate(-100, -36)"><foreignObject width="200" height="72"><div xmlns="http://www.w3.org/1999/xhtml" class="labelBkg" style="display: table; white-space: break-spaces; line-height: 1.5; max-width: 200px; text-align: center; width: 200px;"><span class="edgeLabel"><p>UniMRCP 事件通知<br /><b>实时语音流 + CallID + 手机号</b></p></span></div></foreignObject></g></g><g class="edgeLabel" transform="translate(1210.3828125, 1229.7072830200195)"><g class="label" transform="translate(-100, -36)"><foreignObject width="200" height="72"><div xmlns="http://www.w3.org/1999/xhtml" style="stroke: rgb(217, 72, 15); stroke-width: 4px; display: table; white-space: break-spaces; line-height: 1.5; max-width: 200px; text-align: center; width: 200px;" class="labelBkg"><span style=";stroke:#d9480f;stroke-width:4px;color:none" class="edgeLabel"><p>HTTP JSON 推送<br /> *** <b>ASR识别文本 + CallID + 手机号</b> ***</p></span></div></foreignObject></g></g><g class="edgeLabel" transform="translate(1682.3828125, 155)"><g class="label" transform="translate(-89.33203125, -24)"><foreignObject width="178.6640625" height="48"><div xmlns="http://www.w3.org/1999/xhtml" class="labelBkg" style="display: table-cell; white-space: nowrap; line-height: 1.5; max-width: 200px; text-align: center;"><span class="edgeLabel"><p>节点1：用户身份核验<br /><b>传入手机号</b> 通过MCP调用</p></span></div></foreignObject></g></g><g class="edgeLabel" transform="translate(2182.7734375, 189)"><g class="label" transform="translate(-65.875, -12)"><foreignObject width="131.75" height="24"><div xmlns="http://www.w3.org/1999/xhtml" class="labelBkg" style="display: table-cell; white-space: nowrap; line-height: 1.5; max-width: 200px; text-align: center;"><span class="edgeLabel"><p>MCP协议/ESB/RPC</p></span></div></foreignObject></g></g><g class="edgeLabel" transform="translate(2657.5, 114)"><g class="label" transform="translate(-56, -24)"><foreignObject width="112" height="48"><div xmlns="http://www.w3.org/1999/xhtml" style="stroke: rgb(217, 72, 15); stroke-width: 4px; display: table-cell; white-space: nowrap; line-height: 1.5; max-width: 200px; text-align: center;" class="labelBkg"><span style=";stroke:#d9480f;stroke-width:4px;color:none" class="edgeLabel"><p>RPC远程调用<br /><b>优先传入手机号</b></p></span></div></foreignObject></g></g><g class="edgeLabel" transform="translate(3030.765625, 114)"><g class="label" transform="translate(-56, -12)"><foreignObject width="112" height="24"><div xmlns="http://www.w3.org/1999/xhtml" style="stroke: rgb(217, 72, 15); stroke-width: 4px; display: table-cell; white-space: nowrap; line-height: 1.5; max-width: 200px; text-align: center;" class="labelBkg"><span style=";stroke:#d9480f;stroke-width:4px;color:none" class="edgeLabel"><p>声纹比对不一致</p></span></div></foreignObject></g></g><g class="edgeLabel" transform="translate(1682.3828125, 331)"><g class="label" transform="translate(-76.1953125, -24)"><foreignObject width="152.390625" height="48"><div xmlns="http://www.w3.org/1999/xhtml" class="labelBkg" style="display: table-cell; white-space: nowrap; line-height: 1.5; max-width: 200px; text-align: center;"><span class="edgeLabel"><p>节点2：贷款征信核验<br /><b>传入手机号+用户ID</b></p></span></div></foreignObject></g></g><g class="edgeLabel" transform="translate(2657.5, 294)"><g class="label" transform="translate(-56, -24)"><foreignObject width="112" height="48"><div xmlns="http://www.w3.org/1999/xhtml" class="labelBkg" style="display: table-cell; white-space: nowrap; line-height: 1.5; max-width: 200px; text-align: center;"><span class="edgeLabel"><p>RPC远程调用<br /><b>依托双维度查询</b></p></span></div></foreignObject></g></g><g class="edgeLabel" transform="translate(3030.765625, 294)"><g class="label" transform="translate(-56, -12)"><foreignObject width="112" height="24"><div xmlns="http://www.w3.org/1999/xhtml" class="labelBkg" style="display: table-cell; white-space: nowrap; line-height: 1.5; max-width: 200px; text-align: center;"><span class="edgeLabel"><p>征信档案不通过</p></span></div></foreignObject></g></g><g class="edgeLabel" transform="translate(1682.3828125, 572)"><g class="label" transform="translate(-100, -36)"><foreignObject width="200" height="72"><div xmlns="http://www.w3.org/1999/xhtml" class="labelBkg" style="display: table; white-space: break-spaces; line-height: 1.5; max-width: 200px; text-align: center; width: 200px;"><span class="edgeLabel"><p>节点3：State数据提取<br /> *** <b>ASR文本 + CallID + 手机号 + 用户ID</b> ***</p></span></div></foreignObject></g></g><g class="edgeLabel" transform="translate(2182.7734375, 482)"><g class="label" transform="translate(-64, -12)"><foreignObject width="128" height="24"><div xmlns="http://www.w3.org/1999/xhtml" class="labelBkg" style="display: table-cell; white-space: nowrap; line-height: 1.5; max-width: 200px; text-align: center;"><span class="edgeLabel"><p>检索匹配标准话术</p></span></div></foreignObject></g></g><g class="edgeLabel" transform="translate(2182.7734375, 538)"><g class="label" transform="translate(-96.390625, -24)"><foreignObject width="192.78125" height="48"><div xmlns="http://www.w3.org/1999/xhtml" class="labelBkg" style="display: table-cell; white-space: nowrap; line-height: 1.5; max-width: 200px; text-align: center;"><span class="edgeLabel"><p>LangChain Memory<br />分层存储：短期/长期/全域</p></span></div></foreignObject></g></g><g class="edgeLabel" transform="translate(2182.7734375, 606)"><g class="label" transform="translate(-96.390625, -24)"><foreignObject width="192.78125" height="48"><div xmlns="http://www.w3.org/1999/xhtml" class="labelBkg" style="display: table-cell; white-space: nowrap; line-height: 1.5; max-width: 200px; text-align: center;"><span class="edgeLabel"><p>LangChain Memory<br />分层存储：短期/长期/全域</p></span></div></foreignObject></g></g><g class="edgeLabel" transform="translate(2182.7734375, 674)"><g class="label" transform="translate(-96.390625, -24)"><foreignObject width="192.78125" height="48"><div xmlns="http://www.w3.org/1999/xhtml" class="labelBkg" style="display: table-cell; white-space: nowrap; line-height: 1.5; max-width: 200px; text-align: center;"><span class="edgeLabel"><p>LangChain Memory<br />分层存储：短期/长期/全域</p></span></div></foreignObject></g></g><g class="edgeLabel" transform="translate(1682.3828125, 1315.7072830200195)"><g class="label" transform="translate(-65.9296875, -24)"><foreignObject width="131.859375" height="48"><div xmlns="http://www.w3.org/1999/xhtml" class="labelBkg" style="display: table-cell; white-space: nowrap; line-height: 1.5; max-width: 200px; text-align: center;"><span class="edgeLabel"><p>原始识别语音归档<br /><b>绑定CallID+手机号</b></p></span></div></foreignObject></g></g><g class="edgeLabel" transform="translate(2182.7734375, 1229.7072830200195)"><g class="label" transform="translate(-65.9296875, -24)"><foreignObject width="131.859375" height="48"><div xmlns="http://www.w3.org/1999/xhtml" class="labelBkg" style="display: table-cell; white-space: nowrap; line-height: 1.5; max-width: 200px; text-align: center;"><span class="edgeLabel"><p>合成应答语音归档<br /><b>绑定CallID+手机号</b></p></span></div></foreignObject></g></g><g class="edgeLabel" transform="translate(1682.3828125, 1229.7072830200195)"><g class="label" transform="translate(-100, -36)"><foreignObject width="200" height="72"><div xmlns="http://www.w3.org/1999/xhtml" class="labelBkg" style="display: table; white-space: break-spaces; line-height: 1.5; max-width: 200px; text-align: center; width: 200px;"><span class="edgeLabel"><p>HTTP JSON 推送<br /><b>应答话术文本 + CallID + 手机号</b></p></span></div></foreignObject></g></g><g class="edgeLabel" transform="translate(1210.3828125, 1386.7072830200195)"><g class="label" transform="translate(-100, -36)"><foreignObject width="200" height="72"><div xmlns="http://www.w3.org/1999/xhtml" class="labelBkg" style="display: table; white-space: break-spaces; line-height: 1.5; max-width: 200px; text-align: center; width: 200px;"><span class="edgeLabel"><p>MRCP 回调播放指令<br /><b>合成语音流 + CallID + 手机号</b></p></span></div></foreignObject></g></g><g class="edgeLabel" transform="translate(306.90317, 1374.64123)"><g class="label" transform="translate(-84.80078125, -24)"><foreignObject width="169.6015625" height="48"><div xmlns="http://www.w3.org/1999/xhtml" class="labelBkg" style="display: table-cell; white-space: nowrap; line-height: 1.5; max-width: 200px; text-align: center;"><span class="edgeLabel"><p>SIP 下行推送合成语音流<br /><b>携带：CallID, 手机号</b></p></span></div></foreignObject></g></g></g><g class="nodes"><g class="node default core" id="flowchart-A1-0" transform="translate(115.1953125, 1330.7072830200195)"><rect class="basic label-container" style="fill:#f8f9fa !important;stroke:#495057 !important;stroke-width:2px !important" x="-82.1953125" y="-39" width="164.390625" height="78"/><g class="label" style="" transform="translate(-52.1953125, -24)"><rect/><foreignObject width="104.390625" height="48"><div xmlns="http://www.w3.org/1999/xhtml" style="display: table-cell; white-space: nowrap; line-height: 1.5; max-width: 200px; text-align: center;"><span class="nodeLabel"><p>SIP User<br />主叫/被叫终端</p></span></div></foreignObject></g></g><g class="node default core" id="flowchart-A2-1" transform="translate(523.1875, 1330.7072830200195)"><rect class="basic label-container" style="fill:#f8f9fa !important;stroke:#495057 !important;stroke-width:2px !important" x="-106.1953125" y="-51" width="212.390625" height="102"/><g class="label" style="" transform="translate(-76.1953125, -36)"><rect/><foreignObject width="152.390625" height="72"><div xmlns="http://www.w3.org/1999/xhtml" style="display: table-cell; white-space: nowrap; line-height: 1.5; max-width: 200px; text-align: center;"><span class="nodeLabel"><p>FreeSWITCH<br />软交换服务器<br />媒体流转发/事件调度</p></span></div></foreignObject></g></g><g class="node default core" id="flowchart-B1-2" transform="translate(1007.3828125, 1287.7072830200195)"><rect class="basic label-container" style="fill:#f8f9fa !important;stroke:#495057 !important;stroke-width:2px !important" x="-78" y="-51" width="156" height="102"/><g class="label" style="" transform="translate(-48, -36)"><rect/><foreignObject width="96" height="72"><div xmlns="http://www.w3.org/1999/xhtml" style="display: table-cell; white-space: nowrap; line-height: 1.5; max-width: 200px; text-align: center;"><span class="nodeLabel"><p>MRCP ASR<br />语音识别引擎<br />语音转文字</p></span></div></foreignObject></g></g><g class="node default core" id="flowchart-B2-3" transform="translate(1934.3828125, 1229.7072830200195)"><rect class="basic label-container" style="fill:#f8f9fa !important;stroke:#495057 !important;stroke-width:2px !important" x="-78" y="-51" width="156" height="102"/><g class="label" style="" transform="translate(-48, -36)"><rect/><foreignObject width="96" height="72"><div xmlns="http://www.w3.org/1999/xhtml" style="display: table-cell; white-space: nowrap; line-height: 1.5; max-width: 200px; text-align: center;"><span class="nodeLabel"><p>MRCP TTS<br />语音合成引擎<br />文字转语音</p></span></div></foreignObject></g></g><g class="node default highlight" id="flowchart-C1-4" transform="translate(1446.3828125, 487)"><rect class="basic label-container" style="fill:#fff4e6 !important;stroke:#d9480f !important;stroke-width:3px !important" x="-86" y="-51" width="172" height="102"/><g class="label" style="color:#000 !important" transform="translate(-56, -36)"><rect/><foreignObject width="112" height="72"><div xmlns="http://www.w3.org/1999/xhtml" style="color: rgb(0, 0, 0) !important; display: table-cell; white-space: nowrap; line-height: 1.5; max-width: 200px; text-align: center;"><span style="color:#000 !important" class="nodeLabel"><p>LangGraph<br />流程编排调度器<br />全局状态 State</p></span></div></foreignObject></g></g><g class="node default core" id="flowchart-D1-5" transform="translate(1934.3828125, 189)"><rect class="basic label-container" style="fill:#f8f9fa !important;stroke:#495057 !important;stroke-width:2px !important" x="-78" y="-39" width="156" height="78"/><g class="label" style="" transform="translate(-48, -24)"><rect/><foreignObject width="96" height="48"><div xmlns="http://www.w3.org/1999/xhtml" style="display: table-cell; white-space: nowrap; line-height: 1.5; max-width: 200px; text-align: center;"><span class="nodeLabel"><p>MCP Client<br />内置编排引擎</p></span></div></foreignObject></g></g><g class="node default core" id="flowchart-D2-6" transform="translate(2440.33203125, 189)"><rect class="basic label-container" style="fill:#f8f9fa !important;stroke:#495057 !important;stroke-width:2px !important" x="-111.16796875" y="-27" width="222.3359375" height="54"/><g class="label" style="" transform="translate(-81.16796875, -12)"><rect/><foreignObject width="162.3359375" height="24"><div xmlns="http://www.w3.org/1999/xhtml" style="display: table-cell; white-space: nowrap; line-height: 1.5; max-width: 200px; text-align: center;"><span class="nodeLabel"><p>ESB/RPC 远程调用总线</p></span></div></foreignObject></g></g><g class="node default core" id="flowchart-D3-7" transform="translate(2856.6328125, 114)"><rect class="basic label-container" style="fill:#f8f9fa !important;stroke:#495057 !important;stroke-width:2px !important" x="-93.1328125" y="-51" width="186.265625" height="102"/><g class="label" style="" transform="translate(-63.1328125, -36)"><rect/><foreignObject width="126.265625" height="72"><div xmlns="http://www.w3.org/1999/xhtml" style="display: table-cell; white-space: nowrap; line-height: 1.5; max-width: 200px; text-align: center;"><span class="nodeLabel"><p>用户中心<br />User Service<br />查询用户ID与声纹</p></span></div></foreignObject></g></g><g class="node default warn" id="flowchart-D5-8" transform="translate(3225.9609375, 114)"><rect class="basic label-container" style="fill:#fff0f0 !important;stroke:#c92a2a !important;stroke-width:2px !important;stroke-dasharray:5 5 !important" x="-106.1953125" y="-27" width="212.390625" height="54"/><g class="label" style="" transform="translate(-76.1953125, -12)"><rect/><foreignObject width="152.390625" height="24"><div xmlns="http://www.w3.org/1999/xhtml" style="display: table-cell; white-space: nowrap; line-height: 1.5; max-width: 200px; text-align: center;"><span class="nodeLabel"><p>风控预警1：声纹不符</p></span></div></foreignObject></g></g><g class="node default core" id="flowchart-D4-9" transform="translate(2856.6328125, 294)"><rect class="basic label-container" style="fill:#f8f9fa !important;stroke:#495057 !important;stroke-width:2px !important" x="-78" y="-39" width="156" height="78"/><g class="label" style="" transform="translate(-48, -24)"><rect/><foreignObject width="96" height="48"><div xmlns="http://www.w3.org/1999/xhtml" style="display: table-cell; white-space: nowrap; line-height: 1.5; max-width: 200px; text-align: center;"><span class="nodeLabel"><p>金融核心系统<br />征信档案查询</p></span></div></foreignObject></g></g><g class="node default warn" id="flowchart-D6-10" transform="translate(3225.9609375, 294)"><rect class="basic label-container" style="fill:#fff0f0 !important;stroke:#c92a2a !important;stroke-width:2px !important;stroke-dasharray:5 5 !important" x="-114.1953125" y="-27" width="228.390625" height="54"/><g class="label" style="" transform="translate(-84.1953125, -12)"><rect/><foreignObject width="168.390625" height="24"><div xmlns="http://www.w3.org/1999/xhtml" style="display: table-cell; white-space: nowrap; line-height: 1.5; max-width: 200px; text-align: center;"><span class="nodeLabel"><p>风控预警2：征信不合规</p></span></div></foreignObject></g></g><g class="node default core" id="flowchart-E1-11" transform="translate(1934.3828125, 572)"><rect class="basic label-container" style="fill:#f8f9fa !important;stroke:#495057 !important;stroke-width:2px !important" x="-102" y="-39" width="204" height="78"/><g class="label" style="" transform="translate(-72, -24)"><rect/><foreignObject width="144" height="48"><div xmlns="http://www.w3.org/1999/xhtml" style="display: table-cell; white-space: nowrap; line-height: 1.5; max-width: 200px; text-align: center;"><span class="nodeLabel"><p>LLM 大模型<br />语义解析与应答生成</p></span></div></foreignObject></g></g><g class="node default core" id="flowchart-E2-12" transform="translate(2440.33203125, 482)"><rect class="basic label-container" style="fill:#f8f9fa !important;stroke:#495057 !important;stroke-width:2px !important" x="-94" y="-39" width="188" height="78"/><g class="label" style="" transform="translate(-64, -24)"><rect/><foreignObject width="128" height="48"><div xmlns="http://www.w3.org/1999/xhtml" style="display: table-cell; white-space: nowrap; line-height: 1.5; max-width: 200px; text-align: center;"><span class="nodeLabel"><p>RAG 知识库<br />标准业务话术匹配</p></span></div></foreignObject></g></g><g class="node default storage" id="flowchart-F1-13" transform="translate(2440.33203125, 822.1377105712891)"><path d="M0,11.758474576271185 a55.5,11.758474576271185 0,0,0 111,0 a55.5,11.758474576271185 0,0,0 -111,0 l0,74.75847457627118 a55.5,11.758474576271185 0,0,0 111,0 l0,-74.75847457627118" class="basic label-container" style="fill:#e7f5ff !important;stroke:#1971c2 !important;stroke-width:2px !important" transform="translate(-55.5, -49.137711864406775)"/><g class="label" style="" transform="translate(-48, -14)"><rect/><foreignObject width="96" height="48"><div xmlns="http://www.w3.org/1999/xhtml" style="display: table-cell; white-space: nowrap; line-height: 1.5; max-width: 200px; text-align: center;"><span class="nodeLabel"><p>Redis<br />短期会话记忆</p></span></div></foreignObject></g></g><g class="node default storage" id="flowchart-F2-14" transform="translate(2440.33203125, 970.4131317138672)"><path d="M0,11.758474576271185 a55.5,11.758474576271185 0,0,0 111,0 a55.5,11.758474576271185 0,0,0 -111,0 l0,74.75847457627118 a55.5,11.758474576271185 0,0,0 111,0 l0,-74.75847457627118" class="basic label-container" style="fill:#e7f5ff !important;stroke:#1971c2 !important;stroke-width:2px !important" transform="translate(-55.5, -49.137711864406775)"/><g class="label" style="" transform="translate(-48, -14)"><rect/><foreignObject width="96" height="48"><div xmlns="http://www.w3.org/1999/xhtml" style="display: table-cell; white-space: nowrap; line-height: 1.5; max-width: 200px; text-align: center;"><span class="nodeLabel"><p>PostgreSQL<br />长期业务数据</p></span></div></foreignObject></g></g><g class="node default storage" id="flowchart-F3-15" transform="translate(2440.33203125, 1118.6885528564453)"><path d="M0,11.758474576271185 a55.5,11.758474576271185 0,0,0 111,0 a55.5,11.758474576271185 0,0,0 -111,0 l0,74.75847457627118 a55.5,11.758474576271185 0,0,0 111,0 l0,-74.75847457627118" class="basic label-container" style="fill:#e7f5ff !important;stroke:#1971c2 !important;stroke-width:2px !important" transform="translate(-55.5, -49.137711864406775)"/><g class="label" style="" transform="translate(-48, -14)"><rect/><foreignObject width="96" height="48"><div xmlns="http://www.w3.org/1999/xhtml" style="display: table-cell; white-space: nowrap; line-height: 1.5; max-width: 200px; text-align: center;"><span class="nodeLabel"><p>Mem0<br />永久全域记忆</p></span></div></foreignObject></g></g><g class="node default storage" id="flowchart-F4-16" transform="translate(2440.33203125, 1272.7072830200195)"><path d="M0,15.587349397590362 a103.5,15.587349397590362 0,0,0 207,0 a103.5,15.587349397590362 0,0,0 -207,0 l0,78.58734939759036 a103.5,15.587349397590362 0,0,0 207,0 l0,-78.58734939759036" class="basic label-container" style="fill:#e7f5ff !important;stroke:#1971c2 !important;stroke-width:2px !important" transform="translate(-103.5, -54.881024096385545)"/><g class="label" style="" transform="translate(-96, -14)"><rect/><foreignObject width="192" height="48"><div xmlns="http://www.w3.org/1999/xhtml" style="display: table-cell; white-space: nowrap; line-height: 1.5; max-width: 200px; text-align: center;"><span class="nodeLabel"><p>NAS/OSS<br />音频原文件与合成语音归档</p></span></div></foreignObject></g></g></g></g><marker id="mermaid-svg-256_flowchart-v2-pointEnd__d9480f" class="marker flowchart-v2" viewBox="0 0 10 10" refX="5" refY="5" markerUnits="userSpaceOnUse" markerWidth="8" markerHeight="8" orient="auto"><path d="M 0 0 L 10 5 L 0 10 z" class="arrowMarkerPath" style="stroke-width: 1; stroke-dasharray: 1, 0;" stroke="#d9480f" fill="#d9480f"/></marker></g></svg>